<svg width="137" height="28" viewBox="0 0 137 28" fill="none" xmlns="http://www.w3.org/2000/svg">
<path d="M10.1268 9.10221L10.2632 9.62135L9.64945 10.0367C9.17209 10.3828 8.89931 10.7981 8.89931 11.2826C8.89931 11.6979 9.0357 12.1478 9.27438 12.9092L11.8998 21.2846L14.2866 14.6743L13.5024 12.5285C13.025 11.1788 12.5136 10.3135 11.7294 9.62135L11.8658 9.10221C15.0368 9.30987 17.9009 9.30987 21.0719 9.10221L21.2083 9.62135L20.4923 10.0713C20.0149 10.3828 19.8104 10.6942 19.8104 11.2134C19.8104 11.6287 19.9467 12.1132 20.1854 12.84L22.9132 21.2846L25.0954 15.4357C25.3682 14.6743 25.4704 14.1205 25.4704 13.463C25.4704 12.1824 24.7203 10.9711 23.1178 9.62135L23.2541 9.10221C25.5386 9.27526 27.8231 9.27526 30.1076 9.10221L30.244 9.62135C28.7438 11.0057 27.8231 12.4247 26.8002 15.1242L22.2312 27.2374C21.106 27.1682 19.9467 27.1682 18.8215 27.2374L15.0368 16.8201L11.2861 27.2374C10.1268 27.1682 8.89931 27.1682 7.74002 27.2374L2.2504 12.667C1.53436 10.7981 1.1593 10.3135 0 9.62135L0.136388 9.10221C3.51199 9.30987 6.7512 9.30987 10.1268 9.10221ZM38.7342 27.7912C32.8695 27.7912 29.1529 23.9842 29.1529 18.2044C29.1529 12.4247 33.1082 8.61769 38.8365 8.61769C44.1556 8.61769 47.8381 11.7671 48.3836 16.9931H36.0746C36.2792 21.3193 38.2909 23.1535 41.8711 23.1535C43.9851 23.1535 45.9968 22.4614 47.5653 21.25L48.0768 21.6307C46.6106 25.4377 43.0986 27.7912 38.7342 27.7912ZM36.0405 15.6433H41.8711C41.5983 11.2826 40.439 9.89822 38.8706 9.89822C37.1316 9.89822 36.1087 11.5941 36.0405 15.6433ZM57.7262 9.10221L57.8626 9.62135L57.2488 10.0367C56.7715 10.3828 56.4987 10.7981 56.4987 11.2826C56.4987 11.6979 56.6351 12.1478 56.8738 12.9092L59.4992 21.2846L61.886 14.6743L61.1018 12.5285C60.6244 11.1788 60.113 10.3135 59.3288 9.62135L59.4651 9.10221C62.6362 9.30987 65.5003 9.30987 68.6713 9.10221L68.8077 9.62135L68.0917 10.0713C67.6143 10.3828 67.4097 10.6942 67.4097 11.2134C67.4097 11.6287 67.5461 12.1132 67.7848 12.84L70.5126 21.2846L72.6948 15.4357C72.9676 14.6743 73.0698 14.1205 73.0698 13.463C73.0698 12.1824 72.3197 10.9711 70.7172 9.62135L70.8535 9.10221C73.138 9.27526 75.4225 9.27526 77.707 9.10221L77.8434 9.62135C76.3432 11.0057 75.4225 12.4247 74.3996 15.1242L69.8306 27.2374C68.7054 27.1682 67.5461 27.1682 66.4209 27.2374L62.6362 16.8201L58.8855 27.2374C57.7262 27.1682 56.4987 27.1682 55.3394 27.2374L49.8498 12.667C49.1338 10.7981 48.7587 10.3135 47.5994 9.62135L47.7358 9.10221C51.1114 9.30987 54.3506 9.30987 57.7262 9.10221ZM86.9814 8.61769C92.9143 8.61769 97.2105 12.4247 97.2105 18.2044C97.2105 23.9842 92.8461 27.7912 86.9132 27.7912C80.9803 27.7912 76.6841 23.9842 76.6841 18.2044C76.6841 12.4247 81.0485 8.61769 86.9814 8.61769ZM83.8104 17.5122C83.8104 23.3266 84.8333 26.4414 87.1178 26.4414C88.959 26.4414 90.0843 24.9186 90.0843 18.8966C90.0843 12.8746 89.0613 9.96744 86.7768 9.96744C84.9356 9.96744 83.8104 11.4902 83.8104 17.5122ZM97.5856 27.272L97.4492 26.7529L98.779 26.0261C99.7337 25.507 99.9724 25.057 99.9724 23.8803V13.8783C99.9724 12.3555 99.8019 11.9748 98.779 11.4556L97.5174 10.8327V10.3135L99.2563 10.0713C101.643 9.72518 104.098 9.20604 106.008 8.6869L106.178 8.82534V13.5668C107.03 10.1751 108.94 8.58308 111.19 8.58308C113.168 8.58308 114.464 9.86362 114.464 11.5941C114.464 13.3245 113.27 14.4666 111.668 14.4666C110.201 14.4666 109.451 13.7052 108.326 13.7052C107.099 13.7052 106.178 14.3974 106.178 17.0277V23.9149C106.178 25.0917 106.417 25.5416 107.406 26.0261L108.838 26.7529L108.701 27.272C105.019 27.0644 101.268 27.0644 97.5856 27.272ZM122.509 17.7199L126.907 13.9129C127.794 13.1169 128.135 12.667 128.135 12.1132C128.135 11.5595 127.828 11.1442 126.805 10.4174L125.646 9.62135L125.782 9.10221C128.919 9.30987 132.261 9.30987 135.397 9.10221L135.534 9.62135C133.59 10.5212 132.192 11.3864 130.419 12.8746L127.794 15.0896L134.647 24.7802C135.329 25.7146 135.977 26.2338 137 26.7529L136.864 27.272C133.522 27.0644 129.737 27.0644 126.396 27.272L126.259 26.7529C127.555 26.2338 127.862 25.9569 127.862 25.507C127.862 25.1955 127.726 24.9532 127.385 24.4341L123.429 18.7582L122.441 19.5888V23.9149C122.441 25.0917 122.679 25.5416 123.668 26.1645L124.623 26.7529L124.486 27.272C121.145 27.0644 117.326 27.0644 113.985 27.272L113.848 26.7529L115.178 26.0261C116.133 25.507 116.371 25.057 116.371 23.8803V5.19138C116.371 3.66857 116.201 3.28787 115.178 2.76873L113.916 2.14577V1.62663L115.655 1.38437C118.042 1.03828 120.463 0.519138 122.338 0L122.509 0.138437V17.7199Z" fill="black"/>
</svg>
